<svg xmlns="http://www.w3.org/2000/svg" width="16" height="16" viewBox="0 0 16 16">
  <path id="Path_367" data-name="Path 367" d="M124.022,109.468H110.916a1.447,1.447,0,0,0-1.447,1.447v13.1a1.447,1.447,0,0,0,1.447,1.447h13.105a1.447,1.447,0,0,0,1.447-1.447v-13.1a1.447,1.447,0,0,0-1.447-1.447Zm-9.6,13.815a.421.421,0,0,1-.421.421h-1.793a.421.421,0,0,1-.421-.421v-7.516a.421.421,0,0,1,.421-.421H114a.421.421,0,0,1,.421.421v7.516Zm-1.318-8.645a1.7,1.7,0,1,1,1.7-1.7,1.7,1.7,0,0,1-1.7,1.7Zm10.687,8.679a.387.387,0,0,1-.387.387h-1.924a.387.387,0,0,1-.387-.387v-3.525c0-.526.154-2.3-1.374-2.3-1.186,0-1.426,1.217-1.474,1.764v4.066a.387.387,0,0,1-.387.387h-1.861a.387.387,0,0,1-.387-.387v-7.583a.387.387,0,0,1,.387-.387h1.861a.387.387,0,0,1,.387.387v.656a2.642,2.642,0,0,1,2.484-1.169c3.081,0,3.063,2.878,3.063,4.46v3.637h0Z" transform="translate(-109.469 -109.468)" fill="#fff"/>
</svg>
