<svg id="Group_275" data-name="Group 275" xmlns="http://www.w3.org/2000/svg" width="16" height="16" viewBox="0 0 16 16">
  <path id="Path_358" data-name="Path 358" d="M120.7,109.468h-6.467a4.772,4.772,0,0,0-4.766,4.766V120.7a4.772,4.772,0,0,0,4.766,4.766H120.7a4.772,4.772,0,0,0,4.766-4.766v-6.467a4.772,4.772,0,0,0-4.767-4.766Zm3.157,11.233a3.157,3.157,0,0,1-3.157,3.157h-6.467a3.157,3.157,0,0,1-3.157-3.157v-6.467a3.157,3.157,0,0,1,3.157-3.157H120.7a3.157,3.157,0,0,1,3.157,3.157Z" transform="translate(-109.468 -109.468)" fill="#fff"/>
  <path id="Path_359" data-name="Path 359" d="M184.169,180.2a3.966,3.966,0,1,0,3.967,3.967,3.971,3.971,0,0,0-3.967-3.967Zm0,6.39a2.424,2.424,0,1,1,2.424-2.424,2.424,2.424,0,0,1-2.424,2.424Z" transform="translate(-176.169 -176.169)" fill="#fff"/>
</svg>
