<svg xmlns="http://www.w3.org/2000/svg" width="16" height="13.309" viewBox="0 0 16 13.309">
  <path id="Path_355" data-name="Path 355" d="M125.211,135.662a6.333,6.333,0,0,1-1.1.372,3.438,3.438,0,0,0,.908-1.446.18.18,0,0,0-.264-.21,6.363,6.363,0,0,1-1.687.7.428.428,0,0,1-.105.013.447.447,0,0,1-.3-.113,3.449,3.449,0,0,0-2.282-.861,3.686,3.686,0,0,0-1.093.169,3.342,3.342,0,0,0-2.252,2.408,3.681,3.681,0,0,0-.082,1.27.124.124,0,0,1-.031.1.128.128,0,0,1-.1.043h-.012a9.045,9.045,0,0,1-6.217-3.321.18.18,0,0,0-.3.023,3.454,3.454,0,0,0,.561,4.193,3.09,3.09,0,0,1-.787-.3.18.18,0,0,0-.268.156,3.454,3.454,0,0,0,2.015,3.182h-.074a3.092,3.092,0,0,1-.581-.055.18.18,0,0,0-.206.232,3.457,3.457,0,0,0,2.731,2.351,6.365,6.365,0,0,1-3.565,1.083h-.4a.264.264,0,0,0-.258.2.273.273,0,0,0,.131.3,9.467,9.467,0,0,0,4.757,1.283,9.594,9.594,0,0,0,4.065-.862,8.977,8.977,0,0,0,2.975-2.229,9.772,9.772,0,0,0,1.822-3.051,9.637,9.637,0,0,0,.619-3.339v-.053a.587.587,0,0,1,.22-.457,6.819,6.819,0,0,0,1.372-1.505.18.18,0,0,0-.223-.265Z" transform="translate(-109.466 -134.114)" fill="#fff"/>
</svg>
